HIERARCHY
ROOT Hips
{
	OFFSET 0.00000 0.00000 0.00000
	CHANNELS 6 Xposition Yposition Zposition Yrotation Zrotation Xrotation 
	JOINT Lumbar
	{
		OFFSET 0 0 0
		CHANNELS 3 Zrotation Xrotation Yrotation
		JOINT Neck
		{
			OFFSET 0.00 0.2701 0.00
			CHANNELS 3 Zrotation Xrotation Yrotation
			End Site
			{
				OFFSET 0.00 0.1379 0.00
			}
		}
		JOINT RightShoulder
		{
			OFFSET 0.0119 0.2289 0.1181
			CHANNELS 3 Zrotation Xrotation Yrotation
			JOINT RightElbow
			{
				OFFSET 0.00 -0.1475 0.00
				CHANNELS 2 Zrotation Yrotation
				JOINT RightWrist
				{
					OFFSET 0.00 -0.1605 0.00
					CHANNELS 2 Zrotation Xrotation
					End Site
					{
						OFFSET 0.0040 -0.1068 0.0006
					}
				}
			}
		}
		JOINT LeftShoulder
		{
			OFFSET 0.0119 0.2289 -0.1181
			CHANNELS 3 Zrotation Xrotation Yrotation
			JOINT LeftElbow
			{
				OFFSET 0.00 -0.1475 0.00
				CHANNELS 2 Zrotation Yrotation
				JOINT LeftWrist
				{
					OFFSET 0.00 -0.1605 0.00
					CHANNELS 2 Zrotation Xrotation
					End Site
					{
						OFFSET 0.0040 -0.1068 -0.0006
					}
				}
			}
		}
	}
	JOINT RightHip
	{
		OFFSET 0.0316 -0.0424 0.0458
		CHANNELS 3 Zrotation Xrotation Yrotation
		JOINT RightKnee
		{
			OFFSET 0.00 -0.2438 0.00
			CHANNELS 1 Zrotation
			JOINT RightAnkle
			{
				OFFSET 0.00 -0.2449 0.00
				CHANNELS 3 Zrotation Xrotation Yrotation
				End Site
				{
					OFFSET 0.1237 -0.0542 0.0051
				}
			}
		}
	}
	JOINT LeftHip
	{
		OFFSET 0.0316 -0.0424 -0.0458
		CHANNELS 3 Zrotation Xrotation Yrotation
		JOINT LeftKnee
		{
			OFFSET 0.00 -0.2438 0.00
			CHANNELS 1 Zrotation
			JOINT LeftAnkle
			{
				OFFSET 0.00 -0.2449 0.00
				CHANNELS 3 Zrotation Xrotation Yrotation
				End Site
				{
					OFFSET 0.1237 -0.0542 -0.0051
				}
			}
		}
	}
}
MOTION
Frames: 14
Frame Time: 0.02
0.0001 -3e-05 0.00016 177.50152 -47.35514 1.28689 56.68403 -0.11651 0.54133 -6.15393 -1.17745 -1.24169 159.20752 -76.92437 -56.15996 15.55713 77.00713 -2.71188 -9.54885 160.14039 71.45532 74.45448 9.97581 -79.7688 -1.9793 11.17745 49.39543 -1.49995 -12.8763 -18.88213 -7.57845 -3.81344 -4.13543 55.05956 4.15385 14.84043 -24.22828 -7.68866 3.27033 3.88029
0.00018 -2e-05 0.00022 177.48967 -47.35043 1.27974 56.72488 -0.12842 0.53846 -6.31153 -1.18102 -1.24412 159.55277 -76.86309 -55.81221 15.54706 77.03881 -2.68855 -9.555 160.40347 71.48516 74.07967 10.00508 -79.76713 -1.95685 11.19901 49.39901 -1.51538 -12.95714 -18.88379 -7.57486 -3.80971 -4.13333 55.07059 4.12925 14.73913 -24.22891 -7.69405 3.27756 3.88472
0.00026 -1e-05 0.00029 177.47784 -47.34569 1.27261 56.76565 -0.1403 0.53561 -6.46889 -1.18458 -1.24656 159.89729 -76.80196 -55.46512 15.53701 77.07044 -2.66519 -9.56109 160.66586 71.51495 73.70596 10.03423 -79.76547 -1.9344 11.22043 49.40255 -1.53076 -13.03776 -18.88545 -7.57128 -3.806 -4.13124 55.08157 4.10471 14.63802 -24.22955 -7.69942 3.28478 3.88914
0.00034 -1e-05 0.00036 177.46603 -47.34099 1.26548 56.80638 -0.15217 0.53276 -6.62603 -1.18814 -1.24898 160.24154 -76.74085 -55.11835 15.52697 77.10203 -2.64192 -9.56721 160.92816 71.5447 73.33229 10.0634 -79.7638 -1.912 11.2419 49.40611 -1.54614 -13.11836 -18.88711 -7.5677 -3.80229 -4.12916 55.09256 4.08019 14.537 -24.23018 -7.70479 3.29198 3.89356
0.00042 0 0.00043 177.45419 -47.33631 1.25835 56.84716 -0.16406 0.52988 -6.78334 -1.19172 -1.25142 160.58636 -76.67962 -54.77112 15.51691 77.13365 -2.61871 -9.57343 161.19107 71.5745 72.95758 10.09269 -79.76214 -1.88965 11.26356 49.40971 -1.56156 -13.19917 -18.88877 -7.56411 -3.79857 -4.12706 55.10361 4.05563 14.43586 -24.23081 -7.71017 3.2992 3.89798
0.0005 1e-05 0.0005 177.44239 -47.33144 1.25121 56.88791 -0.17594 0.52708 -6.9408 -1.19524 -1.25385 160.93023 -76.6187 -54.42438 15.50688 77.16528 -2.59505 -9.57925 161.45236 71.60424 72.58598 10.12156 -79.76047 -1.867 11.28448 49.41311 -1.57685 -13.27937 -18.89043 -7.56054 -3.79486 -4.12498 55.11443 4.03111 14.33481 -24.23145 -7.71554 3.30642 3.90239
0.00059 2e-05 0.00057 177.43052 -47.32698 1.24409 56.92867 -0.18781 0.52413 -7.09775 -1.19887 -1.25628 161.2757 -76.5572 -54.07693 15.4968 77.19687 -2.5723 -9.58584 161.71667 71.63405 72.20853 10.15123 -79.75882 -1.84495 11.30683 49.41693 -1.59238 -13.36071 -18.89209 -7.55695 -3.79114 -4.12288 55.12572 4.00653 14.23365 -24.23207 -7.72092 3.31363 3.90682
0.00067 3e-05 0.00064 177.41872 -47.32213 1.23696 56.96943 -0.1997 0.52132 -7.25522 -1.2024 -1.25871 161.61956 -76.49627 -53.73029 15.48678 77.22849 -2.54876 -9.59174 161.97812 71.66384 71.83648 10.18019 -79.75716 -1.82238 11.3279 49.42035 -1.6077 -13.44102 -18.89375 -7.55337 -3.78743 -4.1208 55.13655 3.98202 14.13266 -24.23271 -7.72629 3.32084 3.91124
0.00075 3e-05 0.00071 177.40701 -47.31685 1.2298 57.01021 -0.21161 0.51869 -7.41324 -1.20582 -1.26114 161.9622 -76.43587 -53.3838 15.47677 77.2602 -2.52402 -9.59672 162.23652 71.69346 71.47083 10.20819 -79.75542 -1.79902 11.34728 49.42332 -1.62275 -13.52003 -18.89543 -7.5498 -3.78374 -4.11873 55.14689 3.95755 14.03157 -24.23337 -7.73165 3.32806 3.91564
0.00083 4e-05 0.00078 177.39479 -47.31419 1.22275 57.05094 -0.22337 0.51503 -7.56786 -1.20988 -1.26357 162.31412 -76.3719 -53.03393 15.46652 77.29155 -2.50551 -9.60675 162.51381 71.72363 71.06773 10.24144 -79.75396 -1.77972 11.37598 49.42899 -1.63929 -13.60638 -18.89703 -7.54618 -3.77995 -4.11657 55.16025 3.93269 13.9301 -24.23392 -7.73707 3.33529 3.92012
0.00091 5e-05 0.00085 177.38364 -47.30592 1.2155 57.09171 -0.23547 0.51354 -7.72976 -1.21258 -1.266 162.64493 -76.31583 -52.69287 15.45691 77.32356 -2.47429 -9.6063 162.75033 71.75288 70.74406 10.26377 -79.75202 -1.75218 11.38528 49.42889 -1.65273 -13.67734 -18.89878 -7.54266 -3.77636 -4.11459 55.16714 3.90876 13.83007 -24.23469 -7.74236 3.34247 3.92443
0.00097 5e-05 0.0009 177.37541 -47.28273 1.20749 57.13305 -0.24834 0.51814 -7.91097 -1.21143 -1.26839 162.92984 -76.27874 -52.36231 15.4479 77.35864 -2.40418 -9.57534 162.88141 71.77778 70.63697 10.25461 -79.74815 -1.6993 11.33848 49.4135 -1.65721 -13.70464 -18.901 -7.5395 -3.77338 -4.11316 55.15698 3.88639 13.72858 -24.23604 -7.74747 3.34966 3.9284
0.00102 5e-05 0.00095 177.36823 -47.25383 1.19932 57.17432 -0.26156 0.52489 -8.09959 -1.20892 -1.27078 163.19117 -76.25021 -52.04319 15.43977 77.39446 -2.32207 -9.53414 162.97033 71.80223 70.6098 10.23478 -79.74422 -1.63871 11.27267 49.39225 -1.65864 -13.71668 -18.90335 -7.53642 -3.7706 -4.1119 55.1402 3.8651 13.62941 -24.2376 -7.75243 3.35679 3.9322
0.00108 5e-05 0.00101 177.36059 -47.22723 1.19136 57.21536 -0.27473 0.53055 -8.2853 -1.2071 -1.27316 163.45559 -76.21937 -51.72766 15.43199 77.42873 -2.24804 -9.49882 163.07434 71.8279 70.54711 10.2208 -79.74032 -1.58331 11.21746 49.3733 -1.66177 -13.73672 -18.90558 -7.53325 -3.76767 -4.11052 55.12596 3.84398 13.53291 -24.23907 -7.75736 3.36383 3.93599
